<svg id="visual" viewBox="0 0 960 540" width="3840" height="2160"
    xmlns="http://www.w3.org/2000/svg"
    xmlns:xlink="http://www.w3.org/1999/xlink" version="1.1">
    <path d="M0 125L87 147L175 136L262 168L349 114L436 120L524 168L611 190L698 114L785 93L873 228L960 82L960 0L873 0L785 0L698 0L611 0L524 0L436 0L349 0L262 0L175 0L87 0L0 0Z" fill="#ffffff"></path>
    <path d="M0 158L87 239L175 222L262 249L349 185L436 168L524 233L611 222L698 163L785 185L873 260L960 158L960 80L873 226L785 91L698 112L611 188L524 166L436 118L349 112L262 166L175 134L87 145L0 123Z" fill="#fe5b03"></path>
    <path d="M0 260L87 320L175 363L262 336L349 314L436 244L524 325L611 309L698 228L785 266L873 374L960 239L960 156L873 258L785 183L698 161L611 220L524 231L436 166L349 183L262 247L175 220L87 237L0 156Z" fill="#E63000"></path>
    <path d="M0 309L87 390L175 428L262 395L349 401L436 357L524 422L611 401L698 303L785 347L873 422L960 341L960 237L873 372L785 264L698 226L611 307L524 323L436 242L349 312L262 334L175 361L87 318L0 258Z" fill="#FC1E0D"></path>
    <path d="M0 541L87 541L175 541L262 541L349 541L436 541L524 541L611 541L698 541L785 541L873 541L960 541L960 339L873 420L785 345L698 301L611 399L524 420L436 355L349 399L262 393L175 426L87 388L0 307Z" fill="#E6003C"></path>
</svg>